<svg version="1.0" xmlns="http://www.w3.org/2000/svg" width="197.333" height="125.333" viewBox="0 0 148 94"><path d="M23.8 13.1c-.3 5-.4 5.1-4.3 6.5-13.6 4.6-14 23.2-.6 29.5l5 2.4.1 9.7c0 8.8-.2 9.8-1.8 9.8-2.2 0-5.7-3.6-6.7-6.8-.5-1.7-1.4-2.2-4.2-2.2H7.7l.6 4.2C9 71.5 13.8 76.3 19.9 78c4.1 1.1 4.1 1.1 4.1 6 0 4.6.2 5 2.4 5 2.3 0 2.5-.4 2.8-5.2.3-5.1.4-5.3 3.9-6.1 7.7-1.8 12.8-10.9 10.8-19.4C42.7 53 40 49.8 34.2 47l-5.1-2.5-.1-9.3c0-7.3.3-9.2 1.4-9.2 1.7 0 5.6 4.6 5.6 6.6 0 1 1.3 1.4 4.1 1.4 4 0 4.1 0 3.4-3.3-1.2-5.8-5.6-10-12.7-12.1C29.4 18.2 29 17 29 13c0-4.6-.2-5-2.4-5-2.3 0-2.5.4-2.8 5.1zM24 34c0 8.9-1.2 10.2-4.9 5.4-2.7-3.5-2.7-8.1.1-11.1 3.9-4.2 4.8-3.1 4.8 5.7zm12 25.6c1.2 3.6 0 7.9-2.8 10-3.6 2.8-4.2 1.8-4.2-7.7v-9l3 1.8c1.6.9 3.5 3.1 4 4.9zM57 48.5V78h8V54h7.4c11.4 0 17.3-2.8 20.2-9.7 2.9-6.8 1.2-16.6-3.7-20.9C85 20 80.4 19 68.4 19H57v29.5zm22.8-21.4c3.9 1.3 6.2 4.8 6.2 9.4C86 43.8 81.4 47 70.9 47H65V26h5.9c3.2 0 7.2.5 8.9 1.1zM102.8 80.2c-.3.7-.2 2.3 0 3.5.4 2.3.4 2.3 19.3 2.3H141v-7h-18.9c-13.9 0-19 .3-19.3 1.2z"/></svg>