<?xml version="1.0" standalone="no"?>
<!DOCTYPE svg PUBLIC "-//W3C//DTD SVG 20010904//EN"
 "http://www.w3.org/TR/2001/REC-SVG-20010904/DTD/svg10.dtd">
<svg version="1.0" xmlns="http://www.w3.org/2000/svg"
 width="500.000000pt" height="500.000000pt" viewBox="0 0 500.000000 500.000000"
 preserveAspectRatio="xMidYMid meet">

<g transform="translate(0.000000,500.000000) scale(0.100000,-0.100000)"
fill="#000000" stroke="none">
<path d="M2275 4404 c-258 -40 -489 -213 -494 -369 -1 -17 -20 -59 -46 -98
-24 -38 -56 -101 -71 -140 -15 -40 -29 -74 -31 -76 -3 -4 -67 61 -254 257
-119 126 -135 101 -66 -102 50 -148 93 -286 103 -331 4 -16 13 -42 21 -57 12
-24 11 -35 -3 -79 -21 -64 -14 -161 17 -221 12 -23 46 -66 77 -95 65 -63 131
-87 220 -81 l57 3 73 -77 73 -76 -67 -8 c-146 -15 -343 16 -365 58 -13 25 3
46 39 50 25 3 24 5 -23 32 -27 16 -66 44 -85 62 -46 42 -103 57 -225 58 -84 0
-107 -4 -146 -23 -78 -38 -131 -97 -187 -213 -79 -159 -70 -186 36 -113 133
91 292 117 452 75 41 -11 110 -23 153 -26 43 -4 80 -11 83 -15 3 -5 -1 -9 -9
-9 -8 0 -22 -8 -31 -19 -13 -14 -35 -19 -100 -23 -171 -9 -334 -122 -422 -293
-50 -96 -68 -166 -68 -260 0 -57 5 -80 28 -123 62 -122 158 -187 301 -204 90
-11 137 -2 182 36 15 13 43 27 61 31 42 9 98 57 107 92 3 14 25 47 47 72 50
57 107 173 116 238 l7 48 88 3 87 3 0 -207 0 -206 -91 -109 c-50 -60 -97 -109
-105 -109 -46 0 -295 -158 -334 -212 -3 -4 -22 -14 -42 -22 -122 -51 -179
-186 -181 -431 -2 -146 21 -227 83 -298 53 -59 82 -70 182 -65 117 5 180 36
279 136 42 42 92 89 112 103 47 33 207 206 249 267 17 26 49 62 71 81 43 38
76 100 77 143 0 15 12 39 28 55 15 16 56 63 91 105 l64 76 73 -3 c39 -1 80 -7
90 -13 15 -8 12 -13 -24 -36 -55 -35 -98 -95 -111 -157 -18 -83 -14 -275 8
-360 26 -99 76 -186 129 -223 36 -25 55 -31 113 -34 66 -4 76 -2 146 34 73 37
114 78 176 176 9 15 36 40 59 56 46 32 180 188 238 278 90 138 111 175 125
214 17 49 19 117 5 155 -18 46 -121 145 -183 176 -32 15 -74 42 -94 60 -44 38
-122 75 -180 84 l-43 7 -1 61 c0 34 -4 100 -8 147 -10 98 -20 84 109 145 125
59 278 143 335 184 46 33 57 36 140 42 76 5 101 11 161 41 154 78 262 190 325
339 17 41 40 86 51 101 47 67 72 141 72 213 -1 59 -7 82 -37 146 -19 42 -47
89 -62 105 -14 16 -36 44 -48 63 -40 62 -197 150 -268 151 -90 0 -157 -36
-205 -112 -13 -21 -31 -38 -39 -38 -20 0 -83 -57 -101 -91 -16 -32 -18 -99 -4
-148 9 -32 7 -37 -30 -71 -43 -40 -50 -40 -50 0 0 39 -56 144 -94 178 -30 26
-33 36 -39 100 -9 97 -43 184 -110 284 -120 181 -320 317 -465 318 -24 0 -44
10 -76 40 -78 72 -199 109 -301 94z m184 -89 c15 -7 43 -28 61 -45 l34 -32
-38 -13 c-22 -8 -43 -20 -48 -27 -20 -31 -38 -114 -32 -148 10 -54 48 -132 81
-167 30 -31 34 -33 105 -33 42 0 98 8 133 19 50 15 63 24 77 52 12 22 16 45
12 69 -3 19 -6 42 -7 50 -2 8 -7 21 -11 29 -7 11 -6 12 5 6 12 -7 12 -6 1 7
-7 9 -11 22 -10 29 2 8 -3 13 -10 11 -8 -1 -11 2 -8 7 4 5 0 11 -6 14 -7 2
-11 7 -8 10 3 3 46 -24 97 -59 90 -63 150 -131 200 -227 16 -31 16 -32 -3 -18
-10 8 -4 1 14 -17 17 -17 32 -38 32 -46 0 -8 3 -23 6 -33 4 -11 0 -8 -11 7
-52 73 -113 120 -154 120 -39 0 -126 -47 -204 -110 -72 -57 -79 -61 -95 -47
-94 85 -264 167 -349 167 -48 0 -147 -34 -203 -70 -45 -29 -108 -95 -139 -145
-10 -16 -11 -4 -6 69 9 149 67 282 170 392 58 62 91 77 200 94 44 7 84 16 89
21 11 10 -17 44 -59 71 l-30 20 44 -6 c24 -4 55 -13 70 -21z m269 -207 c17
-35 36 -82 41 -105 9 -43 9 -43 -20 -43 -19 0 -29 5 -29 15 0 8 -6 15 -14 15
-29 0 -135 164 -113 174 7 2 32 5 57 5 l46 1 32 -62z m-304 -318 c54 -21 130
-68 216 -135 25 -19 48 -35 51 -35 3 0 38 28 78 61 82 69 176 129 202 129 24
0 122 -112 159 -182 69 -130 64 -392 -10 -539 -35 -68 -115 -171 -166 -213
-154 -129 -416 -187 -612 -137 -100 26 -217 80 -288 131 -61 46 -142 136 -150
167 -4 13 -10 21 -14 18 -12 -7 -6 20 7 36 44 56 83 197 83 304 0 169 86 316
223 385 73 36 141 39 221 10z m1428 -21 c18 -10 16 -13 -34 -46 -29 -19 -65
-46 -80 -60 l-26 -25 -36 28 c-41 33 -44 44 -18 67 48 44 145 62 194 36z m132
-90 c14 -11 26 -24 26 -27 0 -4 -22 -15 -49 -25 -27 -9 -71 -37 -97 -61 l-48
-43 -23 34 c-13 19 -23 38 -23 43 0 15 75 73 111 86 50 18 73 17 103 -7z
m-308 -107 c86 -80 95 -102 58 -131 -46 -37 -79 -29 -171 41 -61 46 -70 66
-49 107 37 70 74 66 162 -17z m396 -9 c32 -38 30 -43 -17 -63 -71 -30 -135
-81 -156 -122 -11 -21 -22 -38 -26 -38 -11 0 -53 43 -53 54 0 18 73 117 101
138 27 20 94 47 120 48 9 0 23 -8 31 -17z m-2294 -24 c46 -37 100 -125 108
-175 23 -156 -86 -301 -208 -277 -16 3 -28 8 -28 12 1 3 18 18 39 32 72 50
102 167 65 258 -19 48 -93 108 -143 117 -20 3 -40 7 -45 8 -5 1 11 14 35 29
57 35 130 34 177 -4z m1512 -152 c11 -54 1 -116 -30 -177 -31 -60 -38 -55 -22
18 9 45 12 98 8 162 l-5 95 19 -25 c11 -14 24 -47 30 -73z m-1628 20 c17 -21
43 -95 36 -102 -2 -2 -19 -6 -39 -10 -30 -6 -40 -3 -58 16 -21 23 -41 94 -33
117 7 20 73 5 94 -21z m2473 -3 c7 -41 10 -38 -65 -94 -64 -48 -113 -53 -118
-12 -7 50 90 142 149 142 23 0 28 -5 34 -36z m-478 -61 c23 -3 50 0 62 7 20
10 26 8 58 -29 19 -23 43 -41 53 -41 11 0 36 -18 56 -40 57 -62 121 -66 185
-13 l33 28 -24 -34 c-14 -18 -47 -45 -75 -59 -67 -35 -176 -37 -248 -5 -60 28
-151 114 -188 178 -40 69 -37 82 10 45 23 -19 55 -34 78 -37z m-264 -137 c18
-172 202 -316 406 -316 l64 0 -23 -24 c-30 -33 -102 -66 -142 -66 -96 0 -217
59 -283 136 -47 55 -95 145 -95 179 0 22 51 144 61 145 3 0 9 -24 12 -54z
m598 -169 c-31 -51 -52 -65 -101 -70 -76 -7 -115 24 -70 56 11 8 18 16 15 19
-3 3 22 8 56 12 34 3 73 12 88 19 34 17 38 5 12 -36z m-762 8 c-13 -12 -80
-35 -74 -25 8 13 68 41 74 34 2 -2 2 -6 0 -9z m-1961 -11 c12 -4 22 -11 22
-17 0 -6 -3 -8 -6 -4 -7 7 -42 -25 -37 -35 2 -3 -10 -9 -27 -13 -17 -4 -28
-11 -24 -16 3 -5 -13 -9 -36 -9 -29 0 -39 3 -34 12 5 8 2 9 -9 5 -9 -3 -19 -2
-22 3 -4 6 -1 10 5 10 7 0 5 7 -4 16 -9 8 -22 12 -28 8 -10 -5 -10 -4 0 7 29
32 138 49 200 33z m1972 -91 c32 -88 81 -150 148 -190 23 -14 42 -26 42 -28 0
-2 -22 -20 -49 -39 -70 -52 -387 -207 -395 -194 -1 2 -17 33 -35 70 -17 37
-50 90 -72 118 -22 27 -36 50 -31 50 17 0 148 93 197 140 28 26 66 53 85 59
19 7 46 18 60 26 35 20 39 19 50 -12z m-1164 -172 c71 -50 102 -123 83 -193
-19 -71 -99 -111 -246 -122 l-73 -5 -11 42 c-19 71 -61 138 -117 183 -30 24
-59 44 -65 44 -21 1 36 29 93 46 71 22 138 31 226 33 63 1 75 -2 110 -28z
m753 -148 c51 -77 101 -206 101 -263 l0 -28 -62 19 c-103 31 -221 42 -368 35
-157 -7 -228 -17 -339 -50 l-81 -23 1 46 c0 44 3 48 47 76 81 52 125 142 105
216 -6 21 -10 39 -9 39 1 0 29 -9 64 -20 96 -30 260 -37 358 -15 43 9 90 23
104 31 14 7 26 13 27 14 0 0 24 -34 52 -77z m-1159 -10 c43 -39 72 -86 84
-137 6 -23 4 -27 -8 -23 -12 5 -16 0 -16 -16 0 -17 2 -19 10 -7 10 17 15 14
25 -19 5 -17 4 -21 -5 -16 -9 5 -10 1 -6 -16 7 -24 7 -24 -8 1 -18 29 -20 23
-6 -14 6 -17 6 -27 -1 -32 -6 -3 -8 -12 -5 -20 7 -17 -49 -54 -79 -54 -12 1
-30 16 -43 37 -19 30 -22 41 -13 60 7 15 16 21 24 17 7 -5 6 0 -3 11 -14 17
-13 17 10 11 20 -6 22 -5 8 4 -17 11 -61 0 -72 -19 -4 -6 -21 0 -43 14 -20 14
-40 25 -45 25 -5 0 -7 4 -3 9 6 10 97 7 113 -3 6 -3 8 2 5 12 -6 25 41 56 73
48 13 -4 24 -14 25 -24 0 -9 5 -4 10 12 9 32 -5 61 -24 49 -7 -4 -8 0 -3 13
18 43 17 53 -3 64 -12 6 -27 8 -34 4 -8 -5 -7 -2 2 9 8 10 9 17 3 17 -6 0 -14
-4 -17 -10 -3 -5 -16 -15 -28 -20 -14 -7 -12 -3 7 11 26 21 27 23 10 30 -16 6
-16 8 -2 8 9 1 35 -16 58 -36z m-225 -35 c-19 -67 -19 -64 -1 -49 9 8 19 11
23 7 3 -3 2 -6 -4 -6 -6 0 -9 -10 -7 -22 2 -13 1 -17 -2 -10 -4 8 -10 10 -17
3 -7 -5 -21 -11 -32 -14 -14 -3 -11 -5 10 -6 24 -1 84 -31 63 -31 -4 0 -14 -3
-24 -7 -13 -5 -15 -3 -9 7 6 10 4 12 -10 6 -10 -4 -28 0 -42 10 -14 8 -27 13
-30 10 -3 -3 -15 0 -26 6 -20 10 -20 11 -2 24 10 8 26 14 34 14 21 0 61 40 61
62 0 10 5 18 11 18 6 0 8 -9 4 -22z m119 0 c21 -29 20 -41 -2 -68 -18 -23 -19
-23 -47 -4 -27 18 -29 18 -22 1 4 -10 3 -16 -2 -13 -12 8 -20 66 -9 72 5 3 5
10 2 16 -4 6 -2 8 4 4 6 -3 13 -2 17 4 11 17 43 11 59 -12z m-25 -105 c14 10
14 10 3 -5 -11 -13 -19 -15 -43 -6 -16 5 -29 14 -29 18 0 5 12 3 27 -5 21 -11
30 -12 42 -2z m-127 -101 c149 -73 236 -258 163 -347 l-24 -30 -1 36 c0 45
-29 84 -74 99 -26 8 -35 18 -40 40 -4 20 -12 30 -24 30 -28 0 -42 -21 -42 -63
0 -31 7 -45 31 -68 17 -16 40 -29 50 -29 46 0 30 -59 -23 -86 -40 -21 -157
-12 -222 15 -79 34 -149 142 -148 228 1 95 55 173 136 194 55 14 169 4 218
-19z m186 -2 c-9 -13 -16 -16 -23 -9 -7 7 -5 13 5 19 24 15 31 11 18 -10z
m1156 -66 c13 -5 16 -22 16 -78 l0 -73 -82 5 c-99 5 -140 24 -148 68 -5 27 -6
28 -18 9 -10 -17 -11 -12 -12 34 l0 54 114 -6 c63 -4 121 -10 130 -13z m159
-40 c26 -6 27 -9 27 -74 l0 -67 -50 10 -50 10 0 69 c0 68 1 70 23 64 12 -4 34
-9 50 -12z m179 -244 c35 -10 72 -26 83 -34 20 -15 20 -15 -2 -16 -56 -1 -307
-114 -363 -164 -37 -33 -77 -56 -97 -56 -14 0 -11 6 13 25 17 13 59 64 92 113
34 49 77 103 97 121 43 38 83 40 177 11z m-827 -104 c71 -33 107 -67 135 -126
24 -50 24 -52 6 -84 -10 -19 -38 -56 -62 -82 l-44 -49 -18 25 c-32 47 -96 102
-150 130 -31 16 -140 39 -190 40 -18 0 86 129 122 151 45 28 137 25 201 -5z
m1084 -49 c61 -36 98 -79 107 -124 7 -35 -21 -143 -37 -143 -5 0 -25 6 -43 14
-27 11 -34 19 -32 40 1 32 2 32 19 0 9 -17 17 -23 21 -15 4 6 2 11 -5 11 -7 0
-9 3 -6 7 4 3 -2 16 -13 28 -19 20 -19 21 -1 21 11 0 17 -6 14 -13 -3 -7 2
-13 12 -13 10 0 14 5 10 13 -4 6 0 4 8 -5 15 -19 27 -23 27 -9 0 16 -83 103
-122 127 -61 39 -78 57 -78 82 0 21 3 23 33 17 17 -4 56 -21 86 -38z m-106
-57 c4 0 5 6 2 13 -4 6 3 1 14 -13 11 -14 21 -21 21 -16 0 5 6 3 14 -4 8 -6
12 -19 9 -27 -5 -12 -3 -14 8 -8 11 7 12 6 2 -7 -7 -8 -9 -19 -5 -24 4 -4 -1
-2 -10 5 -12 9 -16 22 -13 40 5 25 5 25 -10 -4 -12 -23 -15 -24 -11 -8 2 13 0
26 -5 29 -5 3 -9 0 -9 -7 0 -7 -8 -5 -20 6 -11 10 -20 25 -20 34 0 12 3 12 12
3 7 -7 16 -12 21 -12z m-1138 -154 c28 -12 69 -44 93 -69 50 -55 55 -96 18
-167 -25 -51 -49 -60 -93 -35 -15 8 -20 14 -11 13 9 -2 17 -1 18 2 3 10 -19
58 -30 65 -15 9 -2 25 15 19 8 -4 18 1 21 10 3 9 11 13 17 9 7 -4 2 6 -10 21
-33 41 -113 109 -120 102 -15 -14 -9 -52 11 -72 43 -43 57 -67 43 -76 -6 -4
-13 -3 -15 2 -2 5 -9 7 -15 4 -20 -7 -47 50 -47 100 0 25 5 46 10 46 6 0 10
11 10 25 0 32 19 32 85 1z m1109 -48 c5 -4 -1 -4 -13 -1 -13 3 -21 1 -21 -7 0
-10 -3 -10 -15 0 -8 7 -15 18 -15 24 0 6 4 4 10 -4 5 -8 12 -11 16 -7 10 9
-22 44 -41 44 -8 0 -15 -4 -15 -9 0 -4 -8 -8 -17 -8 -15 1 -14 4 6 21 l24 20
36 -33 c20 -18 40 -36 45 -40z m-1363 -1 c-10 -9 -11 -8 -5 6 3 10 9 15 12 12
3 -3 0 -11 -7 -18z m210 -31 c8 5 9 3 4 -6 -6 -10 -4 -12 7 -7 10 3 26 -6 44
-26 16 -17 19 -24 8 -14 -19 16 -22 16 -28 2 -3 -9 -2 -14 3 -11 5 3 14 -1 21
-9 9 -11 8 -14 -9 -12 -13 1 -27 14 -36 33 -8 18 -24 36 -35 39 -11 4 -20 11
-20 17 0 7 5 6 15 -2 8 -6 20 -8 26 -4z m1173 7 c4 -5 11 -8 14 -9 29 -2 122
-40 122 -49 0 -36 -171 -256 -251 -322 -57 -48 -103 -61 -159 -44 -40 12 -94
50 -72 51 7 0 10 5 6 11 -4 8 1 9 16 4 15 -5 20 -4 16 4 -5 7 -1 9 8 5 21 -8
10 -24 -15 -24 -11 0 -18 -4 -14 -10 3 -6 15 -6 30 0 14 5 27 6 30 0 8 -13
-10 -21 -32 -14 -17 5 -17 5 0 -6 25 -16 46 3 39 37 -3 18 -1 24 7 19 7 -5 11
0 11 13 0 11 5 23 10 26 6 3 10 15 10 26 0 14 7 19 26 19 18 0 23 4 17 13 -14
22 -13 48 2 70 17 24 47 33 38 11 -3 -8 -11 -14 -18 -14 -17 0 -27 -28 -13
-36 11 -7 67 46 87 84 6 12 17 22 23 22 9 0 9 -3 0 -12 -17 -17 -15 -33 3 -18
12 10 15 10 15 -4 0 -18 2 -19 24 -10 14 5 12 10 -9 30 -14 13 -31 24 -37 24
-6 0 -3 11 6 25 12 18 14 30 7 43 -8 15 -6 18 7 17 10 0 23 -4 30 -9 8 -5 11
-3 10 6 -2 7 -12 16 -23 20 -20 6 -19 6 1 7 11 1 24 -2 28 -6z m-1182 -250
l67 -29 -56 -75 c-82 -109 -191 -213 -247 -234 -46 -18 -49 -18 -109 2 -46 14
-62 24 -61 37 2 13 -1 14 -12 5 -10 -8 -14 -8 -14 0 0 6 -5 11 -11 11 -6 0
-18 8 -27 17 -16 16 -16 16 1 10 11 -4 17 -2 17 8 0 12 5 12 35 -1 20 -8 40
-12 44 -10 4 3 17 -1 27 -9 26 -20 39 -19 23 2 -13 15 -12 15 10 4 15 -8 21
-9 17 -2 -4 6 -2 11 3 11 6 0 10 3 10 8 -4 22 2 52 11 52 5 0 7 -7 3 -16 -5
-14 -3 -14 18 -2 13 7 30 20 37 28 12 13 13 13 8 -3 -4 -12 13 -3 48 25 29 24
62 49 72 56 11 7 13 10 7 7 -25 -12 -53 14 -53 50 0 31 3 35 27 35 14 0 35 -7
45 -17 17 -15 18 -15 18 10 0 17 -7 28 -20 32 -11 3 -20 10 -20 15 0 4 -9 10
-20 13 -11 3 -23 13 -26 24 -4 10 -16 29 -28 43 -11 14 4 2 34 -26 33 -32 81
-63 122 -81z m-105 10 c0 -9 -4 -10 -14 -2 -7 6 -13 12 -13 14 0 1 6 2 13 2 8
0 14 -6 14 -14z m923 -108 c11 -13 9 -15 -8 -12 -12 2 -25 7 -29 12 -5 4 -2 5
5 1 6 -4 12 -2 12 3 0 15 5 14 20 -4z m-57 -102 c4 -3 2 -12 -4 -19 -7 -8 -6
-14 2 -20 7 -4 9 -3 5 4 -10 16 17 20 39 6 12 -8 53 -16 93 -20 l73 -7 -38
-39 c-48 -50 -108 -86 -152 -90 -27 -2 -37 2 -53 23 -19 25 -19 31 -8 98 12
65 24 83 43 64z m-1229 -24 c3 -3 -4 -5 -14 -6 -11 -1 -22 2 -24 6 -5 8 30 8
38 0z m166 -196 c7 -7 -52 -51 -105 -78 -56 -28 -132 -40 -155 -24 -11 8 -9 9
10 4 l25 -6 -24 19 c-14 12 -21 26 -19 38 5 17 6 17 14 -4 12 -28 25 -30 36
-5 7 17 8 16 7 -2 -2 -41 2 -43 36 -13 18 17 37 44 40 60 l7 29 61 -7 c34 -4
64 -9 67 -11z"/>
<path d="M2320 3652 c-20 -9 -44 -34 -57 -57 -21 -36 -23 -53 -23 -189 0 -164
13 -213 67 -256 38 -30 103 -27 143 6 51 44 60 79 60 246 0 178 -13 217 -83
249 -52 23 -63 23 -107 1z m138 -108 c45 -31 19 -114 -36 -114 -54 0 -80 60
-46 108 18 26 50 28 82 6z"/>
<path d="M2900 3653 c-60 -31 -74 -75 -78 -242 -3 -116 0 -153 13 -187 48
-125 182 -125 230 0 24 63 18 315 -9 369 -33 67 -96 91 -156 60z m132 -110
c39 -35 8 -113 -44 -113 -29 0 -42 9 -57 37 -30 59 51 121 101 76z"/>
<path d="M2669 3224 c-31 -37 33 -71 65 -35 15 17 16 23 6 36 -16 20 -54 19
-71 -1z"/>
<path d="M2538 3129 c-25 -14 -22 -32 8 -69 36 -43 77 -61 135 -62 59 0 106
24 132 70 15 26 17 35 7 47 -19 23 -39 18 -67 -15 -21 -26 -32 -30 -75 -30
-44 0 -53 4 -81 35 -34 39 -34 39 -59 24z"/>
<path d="M1690 2540 c0 -5 5 -10 11 -10 5 0 7 5 4 10 -3 6 -8 10 -11 10 -2 0
-4 -4 -4 -10z"/>
<path d="M1706 2425 c4 -8 8 -15 10 -15 2 0 4 7 4 15 0 8 -4 15 -10 15 -5 0
-7 -7 -4 -15z"/>
<path d="M1526 2421 c-11 -17 30 -33 43 -17 9 11 9 16 0 22 -8 4 -9 3 -5 -4 9
-15 -6 -16 -21 -1 -7 7 -13 7 -17 0z"/>
<path d="M1670 2410 c-9 -6 -10 -10 -3 -10 6 0 15 5 18 10 8 12 4 12 -15 0z"/>
<path d="M1408 2503 c7 -3 16 -2 19 1 4 3 -2 6 -13 5 -11 0 -14 -3 -6 -6z"/>
<path d="M3200 1551 c0 -6 4 -13 10 -16 6 -3 7 1 4 9 -7 18 -14 21 -14 7z"/>
<path d="M3240 1542 c0 -4 9 -13 20 -20 17 -10 20 -10 20 6 0 11 -8 18 -20 19
-11 1 -20 -1 -20 -5z"/>
<path d="M3135 1401 c-3 -5 -2 -12 3 -15 5 -3 9 1 9 9 0 17 -3 19 -12 6z"/>
<path d="M1810 1110 c-8 -5 -12 -12 -9 -15 4 -3 12 1 19 10 14 17 11 19 -10 5z"/>
<path d="M1670 1060 c-9 -6 -10 -10 -3 -10 6 0 15 5 18 10 8 12 4 12 -15 0z"/>
<path d="M2830 1104 c0 -17 17 -36 24 -26 3 5 -1 15 -9 22 -8 7 -15 9 -15 4z"/>
<path d="M1203 2781 c-28 -5 -30 -8 -18 -24 12 -17 14 -17 49 0 58 29 45 39
-31 24z"/>
</g>
</svg>
